<?xml version="1.0" standalone="no"?>
<!DOCTYPE svg PUBLIC "-//W3C//DTD SVG 20010904//EN"
 "http://www.w3.org/TR/2001/REC-SVG-20010904/DTD/svg10.dtd">
<svg version="1.0" xmlns="http://www.w3.org/2000/svg"
 width="1414.000000pt" height="1080.000000pt" viewBox="0 0 1414.000000 1080.000000"
 preserveAspectRatio="xMidYMid meet">

<g transform="translate(0.000000,1080.000000) scale(0.100000,-0.100000)"
fill="#000000" stroke="none">
<path d="M7000 9734 c-38 -16 -85 -57 -103 -89 -9 -14 -13 -195 -17 -640 l-5
-619 -55 -31 c-30 -18 -131 -76 -225 -130 -211 -122 -510 -295 -675 -390 -69
-39 -186 -107 -260 -150 -74 -43 -175 -102 -225 -130 -49 -29 -162 -94 -250
-145 -88 -51 -175 -101 -193 -111 -18 -11 -63 -37 -100 -58 -37 -21 -112 -64
-167 -96 -229 -133 -268 -155 -279 -154 -6 1 -94 88 -196 193 -460 475 -498
512 -538 524 -28 9 -218 12 -671 12 -682 0 -671 1 -730 -53 -30 -28 -61 -93
-61 -132 0 -52 44 -131 91 -162 l43 -28 596 -5 597 -5 194 -200 c107 -109 256
-262 331 -340 l137 -140 1 -1409 0 -1408 -336 -344 -337 -344 -584 0 c-560 0
-585 -1 -622 -20 -73 -36 -119 -117 -108 -187 10 -57 53 -121 100 -146 l42
-22 655 0 655 0 35 22 c31 19 349 339 586 591 91 95 92 96 120 83 31 -13 468
-265 1029 -592 88 -51 189 -109 225 -129 70 -39 174 -100 390 -225 74 -43 191
-110 260 -150 69 -39 215 -124 325 -187 l200 -115 5 -654 c5 -704 4 -684 56
-730 69 -60 175 -66 241 -12 21 16 47 45 58 64 19 33 20 55 23 680 l3 645 72
41 c40 23 155 89 257 148 102 60 230 134 285 165 55 31 127 73 160 92 33 19
152 88 265 153 113 65 302 174 420 242 118 69 244 142 280 163 36 20 108 62
160 93 188 109 476 274 519 298 l44 24 116 -121 c422 -441 528 -547 574 -570
l47 -25 643 3 642 3 42 22 c44 24 88 85 99 139 14 70 -34 157 -107 194 -37 19
-62 20 -622 20 l-584 0 -284 293 c-156 161 -305 315 -331 342 l-48 50 0 1413
0 1414 326 336 327 337 596 5 596 5 43 28 c44 29 92 108 92 152 0 41 -22 97
-51 130 -60 67 -42 66 -759 63 -612 -3 -647 -4 -680 -22 -19 -11 -103 -89
-185 -175 -83 -86 -233 -241 -334 -345 l-184 -190 -36 21 c-20 11 -79 45 -131
75 -52 30 -171 99 -265 153 -93 54 -213 123 -265 153 -52 30 -135 78 -185 107
-49 28 -162 93 -250 145 -88 51 -205 118 -260 150 -117 67 -252 144 -385 222
-122 71 -409 237 -525 303 -49 28 -100 58 -112 66 l-23 14 0 580 c0 352 -4
597 -11 624 -26 114 -146 180 -249 135z m185 -1868 c56 -30 183 -104 315 -181
91 -53 249 -144 355 -205 55 -31 144 -82 197 -113 100 -59 158 -92 453 -262
94 -54 195 -113 225 -130 62 -36 165 -96 420 -242 96 -56 188 -114 204 -129
59 -57 56 19 56 -1383 l0 -1289 -32 -47 c-27 -39 -57 -61 -173 -128 -77 -44
-167 -96 -200 -115 -33 -19 -105 -61 -160 -92 -55 -31 -181 -104 -280 -162
-99 -57 -261 -151 -360 -208 -99 -57 -265 -153 -370 -214 -104 -60 -219 -126
-255 -146 -36 -20 -132 -76 -215 -125 -197 -115 -240 -135 -296 -135 -51 0
-69 8 -264 122 -71 41 -236 136 -365 210 -129 75 -307 178 -395 229 -88 51
-200 116 -250 144 -159 92 -390 226 -405 236 -8 5 -59 34 -112 64 -54 30 -140
79 -190 108 -51 30 -133 77 -183 105 -100 58 -150 107 -165 163 -7 24 -9 480
-8 1311 l3 1274 28 42 c34 52 -11 24 602 377 50 29 167 96 260 150 94 54 213
123 265 153 128 74 242 140 445 257 404 233 620 357 660 378 51 27 122 21 190
-17z"/>
<path d="M6945 7406 c-72 -40 -184 -105 -250 -143 -168 -98 -294 -171 -485
-281 -91 -52 -208 -120 -260 -150 -52 -30 -183 -106 -290 -167 -367 -211 -515
-297 -527 -307 -10 -8 -13 -247 -13 -1132 l0 -1121 38 -21 c20 -12 81 -47 135
-78 223 -129 290 -168 452 -261 94 -54 212 -122 263 -152 50 -29 136 -78 190
-109 53 -31 124 -72 157 -92 33 -19 75 -43 93 -53 63 -36 177 -102 267 -154
50 -29 149 -87 222 -129 73 -42 134 -76 136 -76 3 0 126 70 337 192 130 75
415 240 525 303 50 28 133 76 185 107 52 30 170 99 263 152 182 105 450 259
565 326 l72 42 0 1126 0 1127 -22 14 c-13 8 -63 38 -113 66 -49 28 -182 105
-295 170 -113 65 -230 133 -260 150 -279 161 -409 236 -490 283 -52 31 -135
79 -185 107 -49 29 -182 105 -295 170 -113 65 -223 129 -245 142 l-41 22 -129
-73z m283 -1062 c163 -33 313 -142 396 -288 51 -89 71 -172 70 -296 0 -104 -3
-122 -30 -191 -65 -163 -180 -282 -332 -344 l-57 -23 -5 -329 -5 -330 -29 -37
c-51 -67 -129 -84 -206 -43 -79 42 -80 46 -80 415 0 298 -1 323 -17 328 -126
40 -267 152 -333 263 -73 123 -99 296 -65 440 50 210 239 394 450 435 95 19
152 19 243 0z"/>
<path d="M7003 6009 c-64 -25 -114 -78 -142 -153 -26 -70 -26 -101 -1 -174 25
-74 98 -145 172 -167 61 -18 72 -18 138 -4 110 23 200 136 200 248 0 81 -15
122 -62 176 -79 90 -192 117 -305 74z"/>
<path d="M2405 6891 c-47 -21 -93 -71 -101 -109 -3 -15 -7 -35 -9 -44 -6 -31
15 -99 41 -133 14 -18 47 -42 75 -54 48 -21 62 -22 332 -19 313 3 332 7 382
72 75 98 44 230 -66 286 -35 19 -60 20 -326 20 -258 0 -292 -2 -328 -19z"/>
<path d="M11079 6890 c-108 -57 -138 -189 -64 -286 50 -65 69 -69 382 -72 270
-3 284 -2 332 19 149 64 154 273 7 340 -37 17 -69 19 -331 18 -266 0 -293 -1
-326 -19z"/>
<path d="M2410 2314 c-77 -33 -112 -89 -112 -177 0 -49 5 -67 29 -101 53 -77
70 -81 385 -84 178 -2 292 1 318 8 96 26 156 131 130 225 -17 59 -52 103 -105
126 -36 17 -70 19 -325 18 -232 0 -291 -3 -320 -15z"/>
<path d="M11085 2311 c-53 -23 -88 -67 -105 -126 -26 -94 34 -199 130 -225 26
-7 140 -10 318 -8 315 3 332 7 385 84 50 72 39 182 -25 241 -53 50 -77 53
-380 53 -253 0 -287 -2 -323 -19z"/>
</g>
</svg>
